<svg aria-hidden="true" style="position: absolute; width: 0; height: 0; overflow: hidden;" version="1.1" xmlns="http://www.w3.org/2000/svg" xmlns:xlink="http://www.w3.org/1999/xlink">
<defs>
<symbol id="icon-close" viewBox="0 0 32 32">
<path d="M18.006 16l11.79-11.79c0.233-0.272 0.355-0.622 0.341-0.98s-0.162-0.697-0.416-0.951c-0.253-0.253-0.593-0.402-0.951-0.415s-0.708 0.108-0.98 0.341l-11.79 11.79-11.79-11.804c-0.268-0.268-0.631-0.418-1.010-0.418s-0.742 0.15-1.010 0.418-0.418 0.631-0.418 1.010c0 0.379 0.15 0.742 0.418 1.010l11.804 11.79-11.804 11.79c-0.149 0.128-0.27 0.284-0.355 0.461s-0.133 0.369-0.141 0.564c-0.008 0.196 0.025 0.391 0.097 0.574s0.18 0.348 0.319 0.487c0.139 0.139 0.304 0.247 0.487 0.319s0.378 0.105 0.574 0.097c0.196-0.008 0.388-0.056 0.565-0.141s0.333-0.206 0.461-0.355l11.804-11.79 11.79 11.79c0.272 0.233 0.622 0.355 0.98 0.341s0.697-0.162 0.951-0.416 0.402-0.593 0.416-0.951c0.014-0.358-0.108-0.708-0.341-0.98l-11.79-11.79z"></path>
</symbol>
<symbol id="icon-play" viewBox="0 0 32 32">
<path d="M29.897 13.806l-26.537-13.269c-0.358-0.166-0.752-0.24-1.146-0.214s-0.775 0.148-1.109 0.359c-0.334 0.21-0.61 0.5-0.803 0.845s-0.297 0.731-0.302 1.126v26.526c-0.003 0.405 0.098 0.804 0.294 1.158s0.48 0.652 0.825 0.865 0.738 0.333 1.143 0.349c0.405 0.016 0.807-0.073 1.167-0.258l26.469-13.269c0.392-0.197 0.722-0.499 0.952-0.872s0.352-0.803 0.352-1.242-0.122-0.869-0.352-1.242c-0.23-0.373-0.56-0.675-0.952-0.872v0.011z"></path>
</symbol>
<symbol id="icon-arrow" viewBox="0 0 32 32">
<path d="M10.667 5.333l13.2 10.667-13.2 10.667"></path>
</symbol>
</defs>
</svg>
